<svg width="24" height="19" viewBox="0 0 24 19" fill="none" xmlns="http://www.w3.org/2000/svg">
  <path
    d="M20.0015 1.53077C18.4731 0.815651 16.8388 0.295932 15.1302 0C14.9204 0.379375 14.6752 0.889642 14.5062 1.29556C12.6899 1.02241 10.8903 1.02241 9.10745 1.29556C8.93847 0.889642 8.68775 0.379375 8.47604 0C6.7656 0.295932 5.12944 0.81756 3.601 1.53456C0.518126 6.19318 -0.317591 10.7361 0.100268 15.2145C2.14499 16.7415 4.12658 17.669 6.07472 18.276C6.55573 17.614 6.98472 16.9103 7.35429 16.1686C6.65044 15.9012 5.97629 15.5711 5.33931 15.188C5.5083 15.0628 5.6736 14.9319 5.8333 14.7972C9.71845 16.6144 13.9398 16.6144 17.7785 14.7972C17.9401 14.9319 18.1053 15.0628 18.2725 15.188C17.6336 15.573 16.9576 15.9031 16.2538 16.1705C16.6234 16.9103 17.0505 17.6159 17.5334 18.2779C19.4834 17.6709 21.4668 16.7434 23.5115 15.2145C24.0018 10.0229 22.674 5.5217 20.0015 1.53077ZM7.88359 12.4603C6.71731 12.4603 5.76086 11.3715 5.76086 10.0456C5.76086 8.71976 6.69688 7.62909 7.88359 7.62909C9.07033 7.62909 10.0267 8.71785 10.0063 10.0456C10.0082 11.3715 9.07033 12.4603 7.88359 12.4603ZM15.7282 12.4603C14.5619 12.4603 13.6055 11.3715 13.6055 10.0456C13.6055 8.71976 14.5415 7.62909 15.7282 7.62909C16.9149 7.62909 17.8714 8.71785 17.8509 10.0456C17.8509 11.3715 16.9149 12.4603 15.7282 12.4603Z"
    fill="white" />
</svg>