<svg width="374" height="374" viewBox="0 0 374 374" fill="none" xmlns="http://www.w3.org/2000/svg">
  <g clip-path="url(#clip0_2_2)">
    <path fill-rule="evenodd" clip-rule="evenodd"
      d="M270.255 101.636L172.275 238.098L168.864 242.847H174.711H239.968C241.498 247.49 245.871 250.842 251.027 250.842C257.456 250.842 262.668 245.63 262.668 239.201C262.668 232.771 257.456 227.56 251.027 227.56C245.404 227.56 240.712 231.546 239.623 236.847H180.559L275.129 105.135L270.255 101.636ZM134.032 138.722C132.502 143.365 128.129 146.717 122.973 146.717C116.544 146.717 111.332 141.505 111.332 135.076C111.332 128.646 116.544 123.435 122.973 123.435C128.596 123.435 133.288 127.421 134.376 132.722H197.024H202.844L199.468 137.463L103.427 272.307L98.5403 268.827L191.205 138.722H134.032ZM100.197 213.773L119.774 186.165C120.978 186.586 122.272 186.815 123.62 186.815C130.049 186.815 135.261 181.603 135.261 175.174C135.261 168.744 130.049 163.532 123.62 163.532C117.19 163.532 111.978 168.744 111.978 175.174C111.978 178.085 113.047 180.746 114.813 182.788L95.3027 210.303L100.197 213.773ZM254.234 188.115L273.832 161.433L278.668 164.984L259.194 191.497C260.956 193.537 262.021 196.196 262.021 199.103C262.021 205.532 256.809 210.744 250.38 210.744C243.951 210.744 238.739 205.532 238.739 199.103C238.739 192.674 243.951 187.462 250.38 187.462C251.731 187.462 253.027 187.692 254.234 188.115Z"
      fill="url(#paint0_linear_2_2)" />
    <mask id="mask0_2_2" style="mask-type:luminance" maskUnits="userSpaceOnUse" x="0" y="0" width="374" height="374">
      <path fill-rule="evenodd" clip-rule="evenodd"
        d="M187 368C286.964 368 368 286.964 368 187C368 87.0365 286.964 6 187 6C87.0365 6 6 87.0365 6 187C6 286.964 87.0365 368 187 368ZM187 374C290.277 374 374 290.277 374 187C374 83.7228 290.277 0 187 0C83.7228 0 0 83.7228 0 187C0 290.277 83.7228 374 187 374ZM187 304.25C251.755 304.25 304.25 251.755 304.25 187C304.25 122.245 251.755 69.75 187 69.75C122.245 69.75 69.75 122.245 69.75 187C69.75 251.755 122.245 304.25 187 304.25ZM187 310.25C255.069 310.25 310.25 255.069 310.25 187C310.25 118.931 255.069 63.75 187 63.75C118.931 63.75 63.75 118.931 63.75 187C63.75 255.069 118.931 310.25 187 310.25ZM307.708 104.932C302.495 97.874 293.546 87.3749 281.896 77.287L293.961 62.3861L295.761 60.1629L293.625 58.2592C285.189 50.7372 263.253 35.0676 238.492 28.1633C238.198 26.3798 237.274 24.6931 235.759 23.4661C232.475 20.8076 227.658 21.3143 224.999 24.598C222.341 27.8817 222.848 32.6988 226.131 35.3574C229.415 38.0159 234.232 37.5092 236.891 34.2255C236.952 34.1496 237.012 34.0729 237.07 33.9955C258.679 40.0648 278.229 53.2428 287.462 60.8781L275.391 75.7868L273.532 78.0823L275.799 79.9764C288.107 90.2641 297.489 101.226 302.742 108.307C300.657 111.547 301.304 115.905 304.367 118.385C307.651 121.044 312.468 120.537 315.126 117.253C317.785 113.97 317.278 109.152 313.994 106.494C312.162 105.011 309.853 104.513 307.708 104.932ZM128.189 54.9154C142.338 48.8102 155.684 45.3159 164.306 43.6904C164.861 41.5759 166.314 39.713 168.446 38.7081C172.267 36.9068 176.826 38.5448 178.627 42.3666C180.428 46.1883 178.79 50.7467 174.969 52.5479C171.404 54.2282 167.198 52.9158 165.187 49.6298C156.525 51.2818 142.575 54.9646 127.96 61.5759L125.269 62.7932L124.01 60.1216L115.832 42.7697C104.942 47.7644 84.5742 59.6411 69.7137 76.4627C69.7581 76.5486 69.8012 76.6357 69.8428 76.7239C71.6441 80.5457 70.0061 85.104 66.1843 86.9053C62.3625 88.7065 57.8042 87.0686 56.0029 83.2468C54.2017 79.425 55.8396 74.8667 59.6614 73.0654C61.4253 72.2341 63.346 72.1354 65.0802 72.6458C82.0627 53.3495 105.711 40.4072 116.153 36.0802L118.796 34.9851L120.015 37.5727L128.189 54.9154ZM245.364 320.35C253.338 316.687 265.442 310.07 277.695 300.724L289.82 315.575L291.63 317.791L293.929 316.089C303.014 309.366 322.831 291.089 334.644 268.259C336.449 268.335 338.289 267.775 339.799 266.542C343.072 263.87 343.559 259.051 340.887 255.778C338.215 252.505 333.396 252.018 330.123 254.69C326.851 257.362 326.363 262.181 329.035 265.454C329.097 265.53 329.16 265.604 329.224 265.677C318.873 285.592 301.982 302.041 292.623 309.521L280.492 294.661L278.624 292.374L276.307 294.206C263.724 304.155 251.078 311.102 243.074 314.799C240.328 312.097 235.929 311.841 232.876 314.333C229.604 317.005 229.116 321.824 231.788 325.097C234.46 328.37 239.28 328.857 242.552 326.185C244.378 324.694 245.337 322.535 245.364 320.35ZM122.431 316.956C108.709 309.943 97.5106 301.886 90.7626 296.278C88.7796 297.198 86.4182 297.266 84.2849 296.263C80.4612 294.466 78.8182 289.91 80.6153 286.086C82.4123 282.262 86.9689 280.619 90.7926 282.416C94.3594 284.093 96.0286 288.17 94.7784 291.814C101.571 297.435 113.3 305.838 127.71 312.887L130.363 314.185L129.107 316.858L120.948 334.219C131.737 339.428 153.869 347.553 176.302 348.284C176.34 348.195 176.38 348.106 176.421 348.018C178.218 344.194 182.775 342.551 186.599 344.348C190.422 346.145 192.065 350.702 190.268 354.525C188.471 358.349 183.915 359.992 180.091 358.195C178.326 357.366 177.026 355.949 176.314 354.287C150.621 353.498 125.577 343.523 115.588 338.235L113.06 336.896L114.277 334.307L122.431 316.956ZM47.7919 146.968C45.586 155.461 43.0572 169.023 42.5474 184.425H23.375H20.5145L20.3784 187.282C19.8408 198.572 21.4658 225.481 31.6801 249.07C30.4792 250.421 29.7498 252.2 29.7498 254.15C29.7498 258.375 33.1748 261.8 37.3998 261.8C41.6247 261.8 45.0498 258.375 45.0498 254.15C45.0498 249.925 41.6247 246.5 37.3998 246.5C37.3021 246.5 37.2048 246.502 37.108 246.505C28.2277 225.891 26.1677 202.405 26.2924 190.425H45.475H48.4285L48.4746 187.472C48.7253 171.432 51.3414 157.243 53.5397 148.704C57.3695 148.286 60.3498 145.041 60.3498 141.1C60.3498 136.875 56.9247 133.45 52.6998 133.45C48.4748 133.45 45.0498 136.875 45.0498 141.1C45.0498 143.457 46.1157 145.565 47.7919 146.968ZM347.341 171.876C347.662 171.957 347.984 172.022 348.305 172.071C350.197 198.501 346.632 217.582 344.043 225.875L326.335 221.079L322.906 220.151L322.564 223.686C322.355 225.851 321.343 229.133 319.64 233.235C317.967 237.264 315.734 241.839 313.271 246.501C309.37 253.887 304.947 261.39 301.393 267.121C301.097 267.016 300.793 266.924 300.483 266.846C295.021 265.467 289.476 268.778 288.097 274.24C286.718 279.702 290.029 285.247 295.491 286.626C300.953 288.004 306.498 284.694 307.877 279.232C308.649 276.17 307.949 273.083 306.222 270.717C309.882 264.836 314.501 257.019 318.577 249.304C321.087 244.552 323.412 239.798 325.181 235.535C326.328 232.773 327.29 230.106 327.898 227.719L345.166 232.396L347.744 233.094L348.736 230.614C351.694 223.218 356.506 201.715 354.256 171.179C356.886 169.913 358.956 167.533 359.727 164.482C361.105 159.02 357.795 153.475 352.333 152.096C346.871 150.717 341.326 154.028 339.947 159.49C338.568 164.952 341.879 170.497 347.341 171.876ZM92.7579 76.9946C86.0884 81.9222 73.528 93.9532 62.3051 113.404L45.0721 104.814L42.5468 103.555L41.1358 105.998C37.1729 112.861 29.1069 129.014 25.9104 143.201C24.6461 143.281 23.3757 143.6 22.1626 144.179C17.0795 146.608 14.9272 152.697 17.3554 157.78C19.7835 162.863 25.8726 165.015 30.9558 162.587C36.0389 160.159 38.1912 154.07 35.763 148.987C34.8545 147.085 33.4336 145.593 31.7446 144.598C34.3885 132.778 40.8259 119.077 44.9569 111.461L62.1779 120.045L64.7511 121.327L66.1419 118.811C77.5835 98.1093 90.6841 85.8926 96.637 81.5897C99.5093 83.4279 103.238 83.7845 106.541 82.2064C111.624 79.7783 113.776 73.6892 111.348 68.606C108.92 63.5229 102.831 61.3707 97.7479 63.7988C92.7989 66.1629 90.6282 71.9971 92.7579 76.9946ZM200.783 42.8236C223.171 44.5624 239.442 50.7072 246.764 54.6C250.355 50.5233 256.555 49.9661 260.822 53.412C265.205 56.9513 265.889 63.3733 262.349 67.7559C258.81 72.1386 252.388 72.8223 248.005 69.283C245.157 66.983 243.871 63.4656 244.291 60.0816C237.842 56.5659 221.17 50.0136 197.559 48.6169L194.689 48.4471L194.736 45.5723L195.056 26.3331C186.402 25.8902 171.265 25.9898 159.46 28.7012C159.29 30.654 158.557 32.5791 157.233 34.2188C153.694 38.6014 147.272 39.2852 142.889 35.7459C138.507 32.2066 137.823 25.7846 141.362 21.402C144.901 17.0193 151.323 16.3356 155.706 19.8749C156.752 20.7196 157.587 21.7285 158.205 22.8347C172.384 19.6013 190.436 19.9136 198.336 20.5302L201.149 20.7497L201.102 23.5709L200.783 42.8236ZM332.916 184.736C333.385 176.457 332.152 159.108 324.355 138.049L341.972 130.277L344.553 129.138L343.575 126.491C340.826 119.059 333.55 102.535 324.676 91.0138C325.422 89.9899 325.989 88.8089 326.318 87.5053C327.696 82.0433 324.386 76.4978 318.924 75.1192C313.462 73.7405 307.917 77.0508 306.538 82.5128C305.159 87.9748 308.47 93.5202 313.932 94.8988C315.975 95.4146 318.03 95.2741 319.875 94.6102C327.28 104.195 333.71 117.899 336.931 125.943L319.327 133.709L316.696 134.87L317.744 137.547C326.363 159.574 327.395 177.457 326.903 184.786C323.654 185.822 320.998 188.462 320.102 192.012C318.724 197.474 322.034 203.02 327.496 204.398C332.958 205.777 338.503 202.467 339.882 197.005C341.224 191.687 338.122 186.29 332.916 184.736ZM210.104 330.856C187.871 334.017 170.654 331.549 162.662 329.338C160.042 334.096 154.11 335.986 149.197 333.548C144.151 331.044 142.09 324.923 144.594 319.877C147.098 314.831 153.218 312.77 158.265 315.274C161.544 316.901 163.563 320.056 163.887 323.45C170.946 325.483 188.642 328.261 211.994 324.501L214.833 324.044L215.41 326.86L219.273 345.71C227.816 344.265 242.572 340.883 253.507 335.674C253.248 333.731 253.546 331.693 254.483 329.805C256.987 324.759 263.107 322.698 268.154 325.201C273.2 327.705 275.261 333.826 272.757 338.872C270.253 343.918 264.133 345.979 259.086 343.476C257.882 342.878 256.848 342.074 256.005 341.129C242.866 347.362 225.176 350.974 217.33 352.087L214.536 352.483L213.97 349.719L210.104 330.856ZM47.156 226.09C48.7275 234.232 54.1695 250.752 66.8831 269.263L51.7038 281.11L49.4795 282.846L51.0761 285.172C55.56 291.706 66.6588 305.947 78.0824 314.946C77.6097 316.122 77.3496 317.405 77.3496 318.75C77.3496 324.383 81.9163 328.95 87.5496 328.95C93.1829 328.95 97.7496 324.383 97.7496 318.75C97.7496 313.116 93.1829 308.55 87.5496 308.55C85.442 308.55 83.4837 309.189 81.858 310.284C72.3319 302.804 62.744 291.089 57.6517 284.079L72.8204 272.24L75.087 270.471L73.4158 268.131C59.6677 248.884 54.291 231.797 52.9743 224.57C55.871 222.771 57.7996 219.561 57.7996 215.9C57.7996 210.266 53.2329 205.7 47.5996 205.7C41.9663 205.7 37.3996 210.266 37.3996 215.9C37.3996 221.384 41.7285 225.858 47.156 226.09Z"
        fill="white" />
    </mask>
    <g mask="url(#mask0_2_2)">
      <path
        d="M281.896 77.287L277.233 73.5115L273.581 78.023L277.969 81.8228L281.896 77.287ZM307.708 104.932L302.881 108.497L305.136 111.549L308.86 110.821L307.708 104.932ZM295.761 60.1629L300.424 63.9384L304.024 59.4919L299.754 55.6845L295.761 60.1629ZM238.492 28.1633L232.573 29.1403L233.196 32.9152L236.881 33.9428L238.492 28.1633ZM237.07 33.9955L238.692 28.219L234.734 27.1073L232.269 30.397L237.07 33.9955ZM287.462 60.8781L292.125 64.6536L295.861 60.0386L291.285 56.2544L287.462 60.8781ZM273.532 78.0823L268.869 74.3069L265.152 78.8978L269.685 82.686L273.532 78.0823ZM302.742 108.307L307.787 111.554L310.033 108.065L307.561 104.733L302.742 108.307ZM164.306 43.6904L165.418 49.5866L169.147 48.8836L170.11 45.2131L164.306 43.6904ZM128.189 54.9154L122.762 57.4734L125.236 62.7241L130.566 60.4244L128.189 54.9154ZM165.187 49.6298L170.304 46.4977L168.138 42.9587L164.062 43.7361L165.187 49.6298ZM125.269 62.7932L119.842 65.3512L122.36 70.6945L127.742 68.2599L125.269 62.7932ZM115.832 42.7697L121.259 40.2117L118.728 34.8405L113.33 37.316L115.832 42.7697ZM69.7137 76.4627L65.217 72.4902L62.4952 75.5712L64.3857 79.2218L69.7137 76.4627ZM65.0802 72.6458L63.3861 78.4016L67.0565 79.4819L69.5842 76.6098L65.0802 72.6458ZM118.796 34.9851L124.223 32.4271L121.784 27.252L116.499 29.4422L118.796 34.9851ZM277.695 300.724L282.343 296.929L278.672 292.433L274.057 295.953L277.695 300.724ZM245.364 320.35L242.86 314.897L239.411 316.481L239.364 320.275L245.364 320.35ZM291.63 317.791L286.982 321.586L290.6 326.017L295.199 322.614L291.63 317.791ZM334.644 268.259L334.895 262.265L331.073 262.104L329.315 265.502L334.644 268.259ZM329.035 265.454L333.684 261.66L333.683 261.659L329.035 265.454ZM329.224 265.677L334.548 268.444L336.444 264.796L333.727 261.711L329.224 265.677ZM292.623 309.521L287.975 313.315L291.731 317.915L296.369 314.208L292.623 309.521ZM278.624 292.374L283.272 288.579L279.536 284.003L274.902 287.667L278.624 292.374ZM243.074 314.799L238.865 319.076L241.823 321.986L245.59 320.246L243.074 314.799ZM90.7626 296.278L94.5979 291.663L91.6794 289.238L88.237 290.835L90.7626 296.278ZM122.431 316.956L127.862 319.508L130.331 314.254L125.162 311.613L122.431 316.956ZM94.7784 291.814L89.1031 289.867L87.7566 293.791L90.9531 296.436L94.7784 291.814ZM130.363 314.185L135.793 316.737L138.306 311.391L133 308.796L130.363 314.185ZM120.948 334.219L115.518 331.667L112.992 337.041L118.339 339.622L120.948 334.219ZM176.302 348.284L176.107 354.281L180.216 354.415L181.824 350.631L176.302 348.284ZM176.314 354.287L181.829 351.924L180.322 348.407L176.498 348.29L176.314 354.287ZM113.06 336.896L107.63 334.344L105.196 339.522L110.252 342.199L113.06 336.896ZM42.5474 184.425V190.425H48.3521L48.5441 184.623L42.5474 184.425ZM47.7919 146.968L53.5992 148.477L54.5531 144.804L51.6435 142.368L47.7919 146.968ZM20.5145 184.425V178.425H14.7934L14.5213 184.139L20.5145 184.425ZM31.6801 249.07L36.1646 253.056L38.7063 250.196L37.186 246.685L31.6801 249.07ZM37.108 246.505L31.5976 248.879L33.2243 252.655L37.333 252.501L37.108 246.505ZM26.2924 190.425V184.425H20.3546L20.2928 190.362L26.2924 190.425ZM48.4285 190.425V196.425H54.3355L54.4278 190.519L48.4285 190.425ZM53.5397 148.704L52.8883 142.74L48.7636 143.19L47.7291 147.208L53.5397 148.704ZM348.305 172.071L354.29 171.643L353.948 166.865L349.213 166.14L348.305 172.071ZM344.043 225.875L342.474 231.667L348.049 233.176L349.77 227.663L344.043 225.875ZM322.906 220.151L324.475 214.359L317.619 212.502L316.934 219.573L322.906 220.151ZM301.393 267.121L299.396 272.778L303.947 274.385L306.492 270.283L301.393 267.121ZM300.483 266.846L301.952 261.029L301.951 261.028L300.483 266.846ZM306.222 270.717L301.128 267.547L298.989 270.985L301.376 274.255L306.222 270.717ZM327.898 227.719L329.467 221.928L323.589 220.336L322.084 226.236L327.898 227.719ZM347.744 233.094L346.175 238.885L351.331 240.281L353.315 235.322L347.744 233.094ZM354.256 171.179L351.654 165.773L347.972 167.545L348.272 171.62L354.256 171.179ZM62.3051 113.404L59.6284 118.774L64.6808 121.292L67.5021 116.403L62.3051 113.404ZM92.7579 76.9946L96.3233 81.8203L100.136 79.0034L98.2775 74.6423L92.7579 76.9946ZM42.5468 103.555L45.2235 98.1852L40.173 95.6677L37.351 100.555L42.5468 103.555ZM25.9104 143.201L26.29 149.189L30.7757 148.905L31.7636 144.52L25.9104 143.201ZM31.7446 144.598L25.8893 143.289L24.9359 147.551L28.6994 149.768L31.7446 144.598ZM44.9569 111.461L47.6336 106.091L42.4461 103.505L39.6827 108.6L44.9569 111.461ZM64.7511 121.327L62.0744 126.697L67.2209 129.263L70.0024 124.23L64.7511 121.327ZM96.637 81.5897L99.8715 76.5361L96.4319 74.3347L93.1222 76.727L96.637 81.5897ZM246.764 54.6L243.948 59.8978L248.133 62.1233L251.267 58.5657L246.764 54.6ZM200.783 42.8236L194.784 42.724L194.69 48.3685L200.318 48.8056L200.783 42.8236ZM244.291 60.0816L250.246 60.8205L250.749 56.768L247.163 54.8135L244.291 60.0816ZM194.689 48.4471L188.689 48.3475L188.594 54.0971L194.334 54.4366L194.689 48.4471ZM195.056 26.3331L201.055 26.4327L201.151 20.6371L195.362 20.3409L195.056 26.3331ZM159.46 28.7012L158.117 22.8534L153.86 23.8312L153.482 28.1827L159.46 28.7012ZM158.205 22.8347L152.966 25.7591L155.156 29.6838L159.539 28.6845L158.205 22.8347ZM201.149 20.7497L207.149 20.8493L207.242 15.2069L201.616 14.7679L201.149 20.7497ZM324.355 138.049L321.933 132.559L316.768 134.838L318.728 140.132L324.355 138.049ZM332.916 184.736L326.926 184.397L326.658 189.13L331.201 190.486L332.916 184.736ZM344.553 129.138L346.975 134.627L352.138 132.35L350.181 127.057L344.553 129.138ZM324.676 91.0138L319.827 87.481L317.18 91.1139L319.923 94.6749L324.676 91.0138ZM319.875 94.6102L324.622 90.9416L321.952 87.4853L317.842 88.9649L319.875 94.6102ZM336.931 125.943L339.353 131.432L344.656 129.092L342.501 123.712L336.931 125.943ZM316.696 134.87L314.274 129.38L309.013 131.701L311.109 137.056L316.696 134.87ZM326.903 184.786L328.725 190.503L332.616 189.262L332.89 185.188L326.903 184.786ZM162.662 329.338L164.262 323.555L159.693 322.291L157.407 326.443L162.662 329.338ZM210.104 330.856L215.982 329.651L214.848 324.121L209.259 324.915L210.104 330.856ZM163.887 323.45L157.914 324.021L158.303 328.086L162.227 329.216L163.887 323.45ZM214.833 324.044L220.71 322.839L219.556 317.206L213.879 318.12L214.833 324.044ZM219.273 345.71L213.395 346.915L214.559 352.593L220.274 351.626L219.273 345.71ZM253.507 335.674L256.087 341.091L260.03 339.213L259.454 334.883L253.507 335.674ZM256.005 341.129L260.485 337.137L257.494 333.781L253.433 335.708L256.005 341.129ZM214.536 352.483L208.658 353.688L209.791 359.216L215.378 358.424L214.536 352.483ZM66.8831 269.263L70.5747 273.992L75.025 270.519L71.8289 265.866L66.8831 269.263ZM47.156 226.09L53.0472 224.953L52.1488 220.298L47.4125 220.096L47.156 226.09ZM49.4795 282.846L45.7879 278.116L41.3393 281.588L44.5324 286.241L49.4795 282.846ZM78.0824 314.946L83.6491 317.185L85.3261 313.015L81.7954 310.233L78.0824 314.946ZM81.858 310.284L78.1524 315.003L81.5876 317.701L85.2102 315.26L81.858 310.284ZM57.6517 284.079L53.9601 279.349L49.3908 282.915L52.7972 287.605L57.6517 284.079ZM75.087 270.471L78.7786 275.201L83.3117 271.663L79.9694 266.983L75.087 270.471ZM52.9743 224.57L49.8083 219.474L46.3395 221.629L47.0715 225.646L52.9743 224.57ZM362 187C362 283.65 283.65 362 187 362V374C290.277 374 374 290.277 374 187H362ZM187 12C283.65 12 362 90.3502 362 187H374C374 83.7228 290.277 0 187 0V12ZM12 187C12 90.3502 90.3502 12 187 12V0C83.7228 0 0 83.7228 0 187H12ZM187 362C90.3502 362 12 283.65 12 187H0C0 290.277 83.7228 374 187 374V362ZM368 187C368 286.964 286.964 368 187 368V380C293.591 380 380 293.591 380 187H368ZM187 6C286.964 6 368 87.0365 368 187H380C380 80.409 293.591 -6 187 -6V6ZM6 187C6 87.0365 87.0365 6 187 6V-6C80.409 -6 -6 80.409 -6 187H6ZM187 368C87.0365 368 6 286.964 6 187H-6C-6 293.591 80.409 380 187 380V368ZM298.25 187C298.25 248.442 248.442 298.25 187 298.25V310.25C255.069 310.25 310.25 255.069 310.25 187H298.25ZM187 75.75C248.442 75.75 298.25 125.558 298.25 187H310.25C310.25 118.931 255.069 63.75 187 63.75V75.75ZM75.75 187C75.75 125.558 125.558 75.75 187 75.75V63.75C118.931 63.75 63.75 118.931 63.75 187H75.75ZM187 298.25C125.558 298.25 75.75 248.442 75.75 187H63.75C63.75 255.069 118.931 310.25 187 310.25V298.25ZM304.25 187C304.25 251.755 251.755 304.25 187 304.25V316.25C258.383 316.25 316.25 258.383 316.25 187H304.25ZM187 69.75C251.755 69.75 304.25 122.245 304.25 187H316.25C316.25 115.617 258.383 57.75 187 57.75V69.75ZM69.75 187C69.75 122.245 122.245 69.75 187 69.75V57.75C115.617 57.75 57.75 115.617 57.75 187H69.75ZM187 304.25C122.245 304.25 69.75 251.755 69.75 187H57.75C57.75 258.383 115.617 316.25 187 316.25V304.25ZM277.969 81.8228C289.239 91.5824 297.894 101.743 302.881 108.497L312.534 101.368C307.096 94.0046 297.853 83.1675 285.824 72.7512L277.969 81.8228ZM289.297 58.6106L277.233 73.5115L286.56 81.0625L298.624 66.1616L289.297 58.6106ZM291.097 56.3874L289.297 58.6106L298.624 66.1616L300.424 63.9384L291.097 56.3874ZM289.632 62.7375L291.768 64.6413L299.754 55.6845L297.618 53.7808L289.632 62.7375ZM236.881 33.9428C260.497 40.5281 281.644 55.6147 289.632 62.7375L297.618 53.7808C288.735 45.8597 266.009 29.6072 240.104 22.3838L236.881 33.9428ZM231.983 28.1294C232.313 28.3965 232.508 28.7506 232.573 29.1403L244.412 27.1863C243.888 24.0089 242.235 20.9897 239.534 18.8029L231.983 28.1294ZM229.663 28.3735C230.236 27.6652 231.275 27.556 231.983 28.1294L239.534 18.8029C233.675 14.0592 225.08 14.9634 220.336 20.8225L229.663 28.3735ZM229.907 30.6941C229.198 30.1207 229.089 29.0817 229.663 28.3735L220.336 20.8225C215.592 26.6816 216.497 35.2769 222.356 40.0206L229.907 30.6941ZM232.227 30.4498C231.654 31.1581 230.615 31.2676 229.907 30.6941L222.356 40.0206C228.215 44.7643 236.81 43.8601 241.554 38.001L232.227 30.4498ZM232.269 30.397C232.255 30.4151 232.241 30.4327 232.227 30.4498L241.554 38.001C241.663 37.8664 241.768 37.7308 241.871 37.5939L232.269 30.397ZM291.285 56.2544C281.667 48.2997 261.378 34.5907 238.692 28.219L235.447 39.772C255.98 45.5388 274.792 58.1859 283.638 65.5017L291.285 56.2544ZM280.054 79.5623L292.125 64.6536L282.798 57.1026L270.728 72.0114L280.054 79.5623ZM278.196 81.8578L280.054 79.5623L270.728 72.0114L268.869 74.3069L278.196 81.8578ZM279.647 75.3728L277.38 73.4786L269.685 82.686L271.951 84.5801L279.647 75.3728ZM307.561 104.733C302.077 97.3403 292.379 86.0146 279.646 75.3727L271.951 84.5801C283.835 94.5136 292.9 105.112 297.923 111.882L307.561 104.733ZM308.142 113.722C307.485 113.189 307.341 112.248 307.787 111.554L297.696 105.061C293.973 110.847 295.123 118.621 300.591 123.048L308.142 113.722ZM310.463 113.478C309.89 114.186 308.851 114.295 308.142 113.722L300.591 123.048C306.451 127.792 315.046 126.888 319.789 121.029L310.463 113.478ZM310.219 111.157C310.927 111.73 311.036 112.77 310.463 113.478L319.789 121.029C324.533 115.17 323.629 106.574 317.77 101.831L310.219 111.157ZM308.86 110.821C309.337 110.727 309.825 110.838 310.219 111.157L317.77 101.831C314.5 99.183 310.369 98.2979 306.556 99.0441L308.86 110.821ZM163.195 37.7943C154.2 39.49 140.422 43.1024 125.812 49.4063L130.566 60.4244C144.255 54.5179 157.168 51.1418 165.418 49.5866L163.195 37.7943ZM165.888 33.2807C162.082 35.0745 159.489 38.409 158.503 42.1677L170.11 45.2131C170.233 44.7428 170.545 44.3514 171.004 44.1355L165.888 33.2807ZM184.054 39.8086C180.84 32.9893 172.707 30.0667 165.888 33.2807L171.004 44.1355C171.828 43.747 172.811 44.1003 173.2 44.9246L184.054 39.8086ZM177.527 57.9753C184.346 54.7613 187.268 46.6278 184.054 39.8086L173.2 44.9246C173.588 45.7489 173.235 46.732 172.411 47.1205L177.527 57.9753ZM160.069 52.7619C163.661 58.6306 171.162 60.9751 177.527 57.9753L172.411 47.1205C171.645 47.4813 170.735 47.201 170.304 46.4977L160.069 52.7619ZM130.433 67.0426C144.545 60.6589 158.03 57.103 166.311 55.5236L164.062 43.7361C155.021 45.4606 140.606 49.2703 125.487 56.1092L130.433 67.0426ZM127.742 68.2599L130.433 67.0426L125.487 56.1092L122.796 57.3265L127.742 68.2599ZM118.582 62.6796L119.842 65.3512L130.696 60.2352L129.437 57.5636L118.582 62.6796ZM110.404 45.3277L118.582 62.6796L129.437 57.5636L121.259 40.2117L110.404 45.3277ZM74.2103 80.4351C88.3303 64.4519 107.899 53.0092 118.333 48.2234L113.33 37.316C101.985 42.5196 80.8181 54.8304 65.217 72.4902L74.2103 80.4351ZM75.2702 74.1659C75.1967 74.0098 75.1204 73.8556 75.0416 73.7036L64.3857 79.2218C64.3959 79.2416 64.4059 79.2617 64.4155 79.282L75.2702 74.1659ZM68.7423 92.3327C75.5616 89.1187 78.4842 80.9852 75.2702 74.1659L64.4155 79.282C64.804 80.1063 64.4506 81.0894 63.6263 81.4779L68.7423 92.3327ZM50.5755 85.8048C53.7895 92.624 61.9231 95.5467 68.7423 92.3327L63.6263 81.4779C62.802 81.8664 61.8188 81.5131 61.4303 80.6888L50.5755 85.8048ZM57.1034 67.638C50.2842 70.852 47.3615 78.9856 50.5755 85.8048L61.4303 80.6888C61.0418 79.8645 61.3951 78.8813 62.2194 78.4928L57.1034 67.638ZM66.7742 66.8899C63.6848 65.9806 60.2471 66.1564 57.1034 67.638L62.2194 78.4928C62.6034 78.3118 63.0072 78.2901 63.3861 78.4016L66.7742 66.8899ZM113.856 30.5373C102.86 35.0939 78.3434 48.4938 60.5761 68.6817L69.5842 76.6098C85.7821 58.2052 108.562 45.7205 118.45 41.6231L113.856 30.5373ZM116.499 29.4422L113.856 30.5373L118.45 41.6231L121.093 40.528L116.499 29.4422ZM125.443 35.0147L124.223 32.4271L113.368 37.5431L114.588 40.1307L125.443 35.0147ZM133.616 52.3574L125.443 35.0147L114.588 40.1307L122.762 57.4734L133.616 52.3574ZM274.057 295.953C262.202 304.995 250.489 311.393 242.86 314.897L247.868 325.802C256.187 321.981 268.682 315.144 281.334 305.495L274.057 295.953ZM294.468 311.781L282.343 296.929L273.048 304.518L285.173 319.37L294.468 311.781ZM296.277 313.997L294.468 311.781L285.173 319.37L286.982 321.586L296.277 313.997ZM290.36 311.266L288.06 312.968L295.199 322.614L297.498 320.912L290.36 311.266ZM329.315 265.502C318.048 287.277 298.963 304.9 290.36 311.267L297.498 320.912C307.066 313.832 327.614 294.902 339.973 271.017L329.315 265.502ZM336.005 261.894C335.676 262.163 335.29 262.281 334.895 262.265L334.392 274.254C337.609 274.389 340.902 273.387 343.594 271.19L336.005 261.894ZM336.239 259.572C336.816 260.278 336.711 261.318 336.005 261.894L343.594 271.19C349.434 266.422 350.303 257.823 345.535 251.983L336.239 259.572ZM333.918 259.338C334.624 258.762 335.663 258.867 336.239 259.572L345.535 251.983C340.767 246.144 332.168 245.275 326.329 250.042L333.918 259.338ZM333.683 261.659C333.107 260.954 333.212 259.914 333.918 259.338L326.329 250.042C320.489 254.81 319.62 263.409 324.388 269.248L333.683 261.659ZM333.727 261.711C333.712 261.694 333.698 261.677 333.684 261.66L324.387 269.248C324.497 269.382 324.609 269.514 324.722 269.643L333.727 261.711ZM296.369 314.208C306.119 306.415 323.68 289.352 334.548 268.444L323.901 262.909C314.065 281.832 297.844 297.667 288.877 304.834L296.369 314.208ZM275.844 298.456L287.975 313.315L297.271 305.726L285.139 290.867L275.844 298.456ZM273.976 296.168L275.844 298.456L285.139 290.867L283.272 288.579L273.976 296.168ZM280.029 298.912L282.345 297.08L274.902 287.667L272.586 289.499L280.029 298.912ZM245.59 320.246C253.946 316.387 267.012 309.204 280.029 298.912L272.586 289.499C260.436 299.106 248.211 305.817 240.558 309.352L245.59 320.246ZM236.671 318.981C237.326 318.446 238.278 318.498 238.865 319.076L247.282 310.523C242.378 305.697 234.532 305.236 229.082 309.686L236.671 318.981ZM236.436 321.303C235.86 320.597 235.965 319.557 236.671 318.981L229.082 309.685C223.242 314.453 222.373 323.052 227.141 328.892L236.436 321.303ZM238.758 321.537C238.052 322.114 237.012 322.009 236.436 321.303L227.141 328.892C231.908 334.731 240.507 335.6 246.347 330.833L238.758 321.537ZM239.364 320.275C239.358 320.762 239.15 321.217 238.758 321.537L246.347 330.833C249.606 328.172 251.316 324.309 251.364 320.424L239.364 320.275ZM86.9274 300.892C93.9671 306.743 105.532 315.058 119.701 322.299L125.162 311.613C111.886 304.829 101.054 297.03 94.5979 291.663L86.9274 300.892ZM81.7328 301.694C85.5409 303.483 89.7632 303.356 93.2883 301.72L88.237 290.835C87.796 291.04 87.2954 291.049 86.8369 290.833L81.7328 301.694ZM75.1851 283.534C71.9786 290.357 74.9101 298.487 81.7328 301.694L86.8369 290.833C86.0121 290.446 85.6579 289.463 86.0455 288.638L75.1851 283.534ZM93.3447 276.986C86.5219 273.78 78.3916 276.711 75.1851 283.534L86.0455 288.638C86.4331 287.813 87.4159 287.459 88.2406 287.846L93.3447 276.986ZM100.454 293.761C102.687 287.253 99.7125 279.979 93.3447 276.986L88.2406 287.846C89.0063 288.206 89.3707 289.087 89.1031 289.867L100.454 293.761ZM130.347 307.498C116.433 300.691 105.098 292.566 98.6037 287.191L90.9531 296.436C98.0443 302.305 110.168 310.985 125.073 318.277L130.347 307.498ZM133 308.796L130.347 307.498L125.073 318.277L127.727 319.575L133 308.796ZM134.537 319.41L135.793 316.737L124.933 311.633L123.677 314.306L134.537 319.41ZM126.378 336.771L134.537 319.41L123.677 314.306L115.518 331.667L126.378 336.771ZM176.497 342.287C155.182 341.593 133.894 333.806 123.556 328.816L118.339 339.622C129.58 345.049 152.556 353.513 176.107 354.281L176.497 342.287ZM170.991 345.466C170.917 345.622 170.847 345.779 170.78 345.937L181.824 350.631C181.833 350.61 181.842 350.59 181.851 350.57L170.991 345.466ZM189.151 338.918C182.328 335.711 174.198 338.643 170.991 345.466L181.851 350.57C182.239 349.745 183.222 349.391 184.047 349.778L189.151 338.918ZM195.698 357.077C198.905 350.255 195.973 342.124 189.151 338.918L184.047 349.778C184.871 350.166 185.226 351.149 184.838 351.973L195.698 357.077ZM177.539 363.625C184.362 366.832 192.492 363.9 195.698 357.077L184.838 351.973C184.45 352.798 183.468 353.152 182.643 352.765L177.539 363.625ZM170.799 356.65C172.067 359.61 174.394 362.147 177.539 363.625L182.643 352.765C182.259 352.584 181.985 352.287 181.829 351.924L170.799 356.65ZM112.781 343.537C123.3 349.107 149.25 359.459 176.13 360.284L176.498 348.29C151.993 347.537 127.854 337.94 118.395 332.932L112.781 343.537ZM110.252 342.199L112.781 343.537L118.395 332.932L115.867 331.594L110.252 342.199ZM108.846 331.755L107.63 334.344L118.49 339.448L119.707 336.859L108.846 331.755ZM117.001 314.404L108.846 331.755L119.707 336.859L127.862 319.508L117.001 314.404ZM48.5441 184.623C49.0373 169.722 51.4887 156.602 53.5992 148.477L41.9845 145.46C39.6834 154.32 37.077 168.323 36.5507 184.226L48.5441 184.623ZM23.375 190.425H42.5474V178.425H23.375V190.425ZM20.5145 190.425H23.375V178.425H20.5145V190.425ZM26.3716 187.567L26.5077 184.71L14.5213 184.139L14.3852 186.997L26.3716 187.567ZM37.186 246.685C27.4437 224.187 25.8625 198.258 26.3716 187.567L14.3852 186.997C13.819 198.886 15.4878 226.775 26.1741 251.454L37.186 246.685ZM35.7498 254.15C35.7498 253.725 35.9022 253.351 36.1646 253.056L27.1955 245.083C25.0562 247.49 23.7498 250.675 23.7498 254.15H35.7498ZM37.3998 255.8C36.4885 255.8 35.7498 255.061 35.7498 254.15H23.7498C23.7498 261.689 29.8611 267.8 37.3998 267.8V255.8ZM39.0498 254.15C39.0498 255.061 38.311 255.8 37.3998 255.8V267.8C44.9384 267.8 51.0498 261.688 51.0498 254.15H39.0498ZM37.3998 252.5C38.311 252.5 39.0498 253.239 39.0498 254.15H51.0498C51.0498 246.611 44.9384 240.5 37.3998 240.5V252.5ZM37.333 252.501C37.3548 252.5 37.3771 252.5 37.3998 252.5V240.5C37.2271 240.5 37.0548 240.503 36.8831 240.509L37.333 252.501ZM20.2928 190.362C20.1628 202.843 22.2747 227.238 31.5976 248.879L42.6184 244.131C34.1806 224.545 32.1726 201.966 32.2921 190.487L20.2928 190.362ZM45.475 184.425H26.2924V196.425H45.475V184.425ZM48.4285 184.425H45.475V196.425H48.4285V184.425ZM42.4754 187.378L42.4292 190.331L54.4278 190.519L54.4739 187.565L42.4754 187.378ZM47.7291 147.208C45.4344 156.122 42.7346 170.786 42.4754 187.378L54.4739 187.565C54.7159 172.078 57.2485 158.364 59.3502 150.2L47.7291 147.208ZM54.3498 141.1C54.3498 141.946 53.708 142.65 52.8883 142.74L54.1911 154.669C61.031 153.922 66.3498 148.136 66.3498 141.1H54.3498ZM52.6998 139.45C53.611 139.45 54.3498 140.189 54.3498 141.1H66.3498C66.3498 133.561 60.2384 127.45 52.6998 127.45V139.45ZM51.0498 141.1C51.0498 140.189 51.7885 139.45 52.6998 139.45V127.45C45.1611 127.45 39.0498 133.561 39.0498 141.1H51.0498ZM51.6435 142.368C51.2707 142.056 51.0498 141.606 51.0498 141.1H39.0498C39.0498 145.307 40.9607 149.074 43.9402 151.569L51.6435 142.368ZM349.213 166.14C349.08 166.12 348.945 166.093 348.809 166.058L345.872 177.693C346.379 177.821 346.887 177.924 347.397 178.002L349.213 166.14ZM349.77 227.663C352.603 218.589 356.23 198.75 354.29 171.643L342.32 172.499C344.163 198.253 340.661 216.576 338.315 224.087L349.77 227.663ZM324.766 226.871L342.474 231.667L345.611 220.084L327.903 215.288L324.766 226.871ZM321.338 225.942L324.766 226.871L327.903 215.288L324.475 214.359L321.338 225.942ZM328.536 224.264L328.879 220.729L316.934 219.573L316.592 223.108L328.536 224.264ZM325.181 235.535C326.92 231.347 328.236 227.37 328.536 224.264L316.592 223.108C316.474 224.331 315.765 226.919 314.098 230.934L325.181 235.535ZM318.577 249.304C321.087 244.552 323.412 239.798 325.181 235.535L314.098 230.934C312.523 234.73 310.382 239.126 307.966 243.699L318.577 249.304ZM306.492 270.283C310.097 264.47 314.594 256.843 318.577 249.304L307.966 243.699C304.146 250.931 299.797 258.31 296.294 263.958L306.492 270.283ZM299.014 272.664C299.146 272.697 299.273 272.735 299.396 272.778L303.39 261.463C302.92 261.297 302.44 261.152 301.952 261.029L299.014 272.664ZM293.914 275.708C294.482 273.459 296.766 272.096 299.015 272.664L301.951 261.028C293.276 258.839 284.469 264.096 282.279 272.771L293.914 275.708ZM296.959 280.808C294.71 280.24 293.347 277.957 293.914 275.708L282.279 272.771C280.09 281.446 285.347 290.254 294.022 292.443L296.959 280.808ZM302.059 277.764C301.491 280.013 299.208 281.376 296.959 280.808L294.022 292.443C302.697 294.633 311.505 289.375 313.694 280.701L302.059 277.764ZM301.376 274.255C302.096 275.241 302.377 276.505 302.059 277.764L313.694 280.701C314.922 275.837 313.802 270.924 311.068 267.179L301.376 274.255ZM313.271 246.501C309.279 254.06 304.734 261.751 301.128 267.547L311.316 273.887C315.029 267.921 319.724 259.979 323.882 252.106L313.271 246.501ZM319.64 233.235C317.967 237.264 315.734 241.839 313.271 246.501L323.882 252.106C326.439 247.265 328.856 242.333 330.723 237.835L319.64 233.235ZM322.084 226.236C321.575 228.234 320.73 230.608 319.64 233.235L330.723 237.835C331.925 234.939 333.004 231.977 333.712 229.202L322.084 226.236ZM346.735 226.604L329.467 221.928L326.33 233.51L343.598 238.187L346.735 226.604ZM349.312 227.302L346.735 226.604L343.598 238.187L346.175 238.885L349.312 227.302ZM343.165 228.386L342.173 230.865L353.315 235.322L354.307 232.842L343.165 228.386ZM348.272 171.62C350.472 201.476 345.708 222.027 343.165 228.386L354.307 232.842C357.68 224.409 362.54 201.955 360.24 170.738L348.272 171.62ZM353.909 163.014C353.592 164.268 352.75 165.245 351.654 165.773L356.858 176.585C361.022 174.581 364.32 170.799 365.544 165.95L353.909 163.014ZM350.865 157.914C353.114 158.481 354.477 160.765 353.909 163.014L365.544 165.95C367.734 157.276 362.476 148.468 353.801 146.278L350.865 157.914ZM345.764 160.958C346.332 158.709 348.616 157.346 350.865 157.914L353.801 146.278C345.126 144.089 336.319 149.346 334.129 158.021L345.764 160.958ZM348.809 166.058C346.56 165.49 345.197 163.207 345.764 160.958L334.129 158.021C331.94 166.696 337.197 175.504 345.872 177.693L348.809 166.058ZM67.5021 116.403C78.324 97.6467 90.3356 86.2441 96.3233 81.8203L89.1925 72.1688C81.8411 77.6002 68.732 90.2596 57.1081 110.405L67.5021 116.403ZM42.3953 110.184L59.6284 118.774L64.9818 108.034L47.7488 99.444L42.3953 110.184ZM39.8701 108.925L42.3953 110.184L47.7488 99.444L45.2235 98.1852L39.8701 108.925ZM46.3316 108.999L47.7427 106.556L37.351 100.555L35.9399 102.998L46.3316 108.999ZM31.7636 144.52C34.7667 131.191 42.4937 115.645 46.3316 108.999L35.9399 102.998C31.852 110.077 23.4471 126.837 20.0571 141.882L31.7636 144.52ZM24.7488 149.593C25.2583 149.35 25.7783 149.222 26.29 149.189L25.5307 137.213C23.5139 137.341 21.4932 137.85 19.5764 138.765L24.7488 149.593ZM22.7694 155.194C21.7695 153.101 22.6558 150.593 24.7488 149.593L19.5764 138.765C11.5032 142.622 8.08488 152.293 11.9414 160.366L22.7694 155.194ZM28.3695 157.173C26.2765 158.173 23.7692 157.287 22.7694 155.194L11.9414 160.366C15.7979 168.439 25.4688 171.858 33.542 168.001L28.3695 157.173ZM30.349 151.573C31.3488 153.666 30.4626 156.173 28.3695 157.173L33.542 168.001C41.6152 164.145 45.0335 154.474 41.177 146.4L30.349 151.573ZM28.6994 149.768C29.3915 150.176 29.9713 150.782 30.349 151.573L41.177 146.4C39.7378 143.388 37.4757 141.011 34.7898 139.429L28.6994 149.768ZM39.6827 108.6C35.457 116.391 28.713 130.665 25.8893 143.289L37.5999 145.908C40.064 134.892 46.1948 121.763 50.2312 114.321L39.6827 108.6ZM64.8546 114.675L47.6336 106.091L42.2802 116.83L59.5012 125.415L64.8546 114.675ZM67.4278 115.958L64.8546 114.675L59.5012 125.415L62.0744 126.697L67.4278 115.958ZM60.8906 115.909L59.4998 118.425L70.0024 124.23L71.3932 121.713L60.8906 115.909ZM93.1222 76.727C86.4384 81.5582 72.7507 94.4497 60.8906 115.909L71.3932 121.713C82.4162 101.769 94.9298 90.227 100.152 86.4523L93.1222 76.727ZM103.955 76.7924C102.601 77.4393 101.07 77.3029 99.8715 76.5361L93.4026 86.6432C97.9489 89.553 103.875 90.1296 109.127 87.6204L103.955 76.7924ZM105.934 71.1923C106.934 73.2853 106.048 75.7926 103.955 76.7924L109.127 87.6204C117.2 83.7639 120.619 74.093 116.762 66.0198L105.934 71.1923ZM100.334 69.2128C102.427 68.213 104.934 69.0992 105.934 71.1923L116.762 66.0198C112.906 57.9466 103.235 54.5283 95.1616 58.3848L100.334 69.2128ZM98.2775 74.6423C97.4024 72.5887 98.2977 70.1856 100.334 69.2128L95.1616 58.3848C87.3002 62.1402 83.8539 71.4055 87.2382 79.3468L98.2775 74.6423ZM249.581 49.3022C241.51 45.0114 224.436 38.6425 201.247 36.8416L200.318 48.8056C221.907 50.4822 237.374 56.403 243.948 59.8978L249.581 49.3022ZM264.592 48.7441C257.814 43.2702 247.967 44.1562 242.262 50.6343L251.267 58.5657C252.742 56.8905 255.297 56.662 257.053 58.08L264.592 48.7441ZM267.017 71.5256C272.638 64.5649 271.553 54.3652 264.592 48.7441L257.053 58.08C258.857 59.5373 259.139 62.1816 257.681 63.9863L267.017 71.5256ZM244.236 73.951C251.196 79.5722 261.396 78.4863 267.017 71.5256L257.681 63.9863C256.224 65.7909 253.58 66.0724 251.775 64.6151L244.236 73.951ZM238.337 59.3426C237.672 64.699 239.707 70.2938 244.236 73.951L251.775 64.6151C250.608 63.6722 250.07 62.2321 250.246 60.8205L238.337 59.3426ZM197.204 54.6064C219.952 55.952 235.762 62.2656 241.419 65.3497L247.163 54.8135C239.922 50.8662 222.388 44.0752 197.913 42.6274L197.204 54.6064ZM194.334 54.4366L197.204 54.6064L197.913 42.6274L195.043 42.4576L194.334 54.4366ZM188.737 45.4727L188.689 48.3475L200.688 48.5467L200.735 45.6719L188.737 45.4727ZM189.057 26.2334L188.737 45.4727L200.735 45.6719L201.055 26.4327L189.057 26.2334ZM160.803 34.5489C171.805 32.022 186.294 31.8925 194.749 32.3252L195.362 20.3409C186.51 19.8879 170.724 19.9576 158.117 22.8534L160.803 34.5489ZM161.901 37.9884C163.999 35.3908 165.168 32.3251 165.437 29.2197L153.482 28.1827C153.413 28.9829 153.116 29.7674 152.565 30.4492L161.901 37.9884ZM139.12 40.4138C146.08 46.035 156.28 44.9491 161.901 37.9884L152.565 30.4492C151.108 32.2539 148.463 32.5353 146.659 31.0779L139.12 40.4138ZM136.694 17.6323C131.073 24.593 132.159 34.7926 139.12 40.4138L146.659 31.0779C144.854 29.6206 144.573 26.9763 146.03 25.1716L136.694 17.6323ZM159.476 15.2069C152.515 9.58574 142.315 10.6716 136.694 17.6323L146.03 25.1716C147.487 23.367 150.132 23.0855 151.936 24.5428L159.476 15.2069ZM163.444 19.9102C162.459 18.1456 161.128 16.5416 159.476 15.2069L151.936 24.5428C152.376 24.8976 152.716 25.3114 152.966 25.7591L163.444 19.9102ZM198.803 14.5484C190.653 13.9124 171.908 13.5558 156.871 16.9848L159.539 28.6845C172.86 25.6468 190.218 25.9149 197.87 26.512L198.803 14.5484ZM201.616 14.7679L198.803 14.5484L197.87 26.512L200.683 26.7315L201.616 14.7679ZM207.102 23.6705L207.149 20.8493L195.15 20.6501L195.103 23.4713L207.102 23.6705ZM206.782 42.9232L207.102 23.6705L195.103 23.4713L194.784 42.724L206.782 42.9232ZM318.728 140.132C326.246 160.439 327.347 176.964 326.926 184.397L338.907 185.076C339.424 175.95 338.057 157.777 329.981 135.966L318.728 140.132ZM339.55 124.787L321.933 132.559L326.776 143.538L344.394 135.766L339.55 124.787ZM342.132 123.648L339.55 124.787L344.394 135.766L346.975 134.627L342.132 123.648ZM337.947 128.573L338.926 131.219L350.181 127.057L349.202 124.41L337.947 128.573ZM319.923 94.6749C328.259 105.499 335.285 121.375 337.947 128.573L349.202 124.41C346.367 116.743 338.841 99.5715 329.43 87.3527L319.923 94.6749ZM320.5 86.0369C320.362 86.5843 320.129 87.0665 319.827 87.481L329.526 94.5467C330.716 92.9132 331.615 91.0334 332.135 88.9737L320.5 86.0369ZM317.456 80.9367C319.705 81.5044 321.068 83.7878 320.5 86.0369L332.135 88.9737C334.325 80.2987 329.067 71.4913 320.393 69.3016L317.456 80.9367ZM312.356 83.9812C312.923 81.7321 315.207 80.3691 317.456 80.9367L320.393 69.3016C311.718 67.112 302.91 72.3694 300.72 81.0443L312.356 83.9812ZM315.4 89.0813C313.151 88.5136 311.788 86.2303 312.356 83.9812L300.72 81.0443C298.531 89.7192 303.788 98.5268 312.463 100.716L315.4 89.0813ZM317.842 88.9649C317.086 89.2369 316.25 89.2957 315.4 89.0813L312.463 100.716C315.701 101.534 318.974 101.311 321.907 100.255L317.842 88.9649ZM342.501 123.712C339.206 115.484 332.532 101.178 324.622 90.9416L315.127 98.2787C322.029 107.211 328.214 120.314 331.361 128.173L342.501 123.712ZM321.748 139.199L339.353 131.432L334.509 120.453L316.905 128.22L321.748 139.199ZM319.118 140.359L321.748 139.199L316.905 128.22L314.274 129.38L319.118 140.359ZM323.331 135.361L322.283 132.683L311.109 137.056L312.156 139.734L323.331 135.361ZM332.89 185.188C333.442 176.959 332.266 158.193 323.331 135.361L312.156 139.734C320.461 160.955 321.348 177.955 320.916 184.384L332.89 185.188ZM325.92 193.48C326.287 192.025 327.37 190.935 328.725 190.503L325.081 179.069C319.938 180.709 315.709 184.9 314.285 190.544L325.92 193.48ZM328.964 198.581C326.715 198.013 325.352 195.73 325.92 193.48L314.285 190.544C312.095 199.219 317.353 208.026 326.028 210.216L328.964 198.581ZM334.064 195.536C333.497 197.785 331.213 199.148 328.964 198.581L326.028 210.216C334.702 212.405 343.51 207.148 345.7 198.473L334.064 195.536ZM331.201 190.486C333.34 191.124 334.617 193.348 334.064 195.536L345.7 198.473C347.832 190.026 342.904 181.456 334.632 178.987L331.201 190.486ZM161.062 335.121C169.872 337.558 187.921 340.07 210.948 336.796L209.259 324.915C187.821 327.963 171.437 325.54 164.262 323.555L161.062 335.121ZM146.53 338.923C154.335 342.795 163.754 339.794 167.918 332.232L157.407 326.443C156.33 328.399 153.886 329.176 151.864 328.173L146.53 338.923ZM139.219 317.21C135.242 325.225 138.516 334.946 146.53 338.923L151.864 328.173C149.786 327.142 148.938 324.622 149.969 322.544L139.219 317.21ZM160.932 309.899C152.917 305.922 143.196 309.196 139.219 317.21L149.969 322.544C151 320.466 153.52 319.617 155.598 320.648L160.932 309.899ZM169.86 322.88C169.347 317.507 166.146 312.486 160.932 309.899L155.598 320.648C156.942 321.316 157.779 322.605 157.914 324.021L169.86 322.88ZM211.04 318.577C188.542 322.2 171.739 319.467 165.547 317.685L162.227 329.216C170.152 331.498 188.741 334.322 212.948 330.424L211.04 318.577ZM213.879 318.12L211.04 318.577L212.948 330.424L215.786 329.967L213.879 318.12ZM221.288 325.656L220.71 322.839L208.955 325.248L209.532 328.065L221.288 325.656ZM225.151 344.506L221.288 325.656L209.532 328.065L213.395 346.915L225.151 344.506ZM250.927 330.257C240.735 335.112 226.62 338.382 218.272 339.794L220.274 351.626C229.013 350.148 244.408 346.654 256.087 341.091L250.927 330.257ZM249.108 327.138C247.624 330.129 247.148 333.376 247.559 336.465L259.454 334.883C259.349 334.087 259.468 333.257 259.858 332.472L249.108 327.138ZM270.821 319.827C262.806 315.85 253.085 319.123 249.108 327.138L259.858 332.472C260.889 330.394 263.409 329.545 265.487 330.576L270.821 319.827ZM278.132 341.539C282.109 333.524 278.835 323.803 270.821 319.827L265.487 330.576C267.565 331.607 268.413 334.127 267.382 336.205L278.132 341.539ZM256.419 348.85C264.434 352.827 274.155 349.554 278.132 341.539L267.382 336.205C266.351 338.283 263.831 339.132 261.753 338.101L256.419 348.85ZM251.525 345.12C252.87 346.629 254.517 347.906 256.419 348.85L261.753 338.101C261.247 337.85 260.826 337.52 260.485 337.137L251.525 345.12ZM218.172 358.027C226.266 356.88 244.642 353.16 258.577 346.55L253.433 335.708C241.089 341.564 224.086 345.069 216.487 346.146L218.172 358.027ZM215.378 358.424L218.172 358.027L216.487 346.146L213.694 346.542L215.378 358.424ZM208.092 350.923L208.658 353.688L220.414 351.278L219.848 348.514L208.092 350.923ZM204.226 332.06L208.092 350.923L219.848 348.514L215.982 329.651L204.226 332.06ZM71.8289 265.866C59.5696 248.016 54.4581 232.263 53.0472 224.953L41.2647 227.227C42.997 236.202 48.7695 253.487 61.9373 272.659L71.8289 265.866ZM55.3954 285.84L70.5747 273.992L63.1915 264.533L48.0122 276.38L55.3954 285.84ZM53.1711 287.576L55.3954 285.84L48.0122 276.38L45.7879 278.116L53.1711 287.576ZM56.0232 281.777L54.4266 279.451L44.5324 286.241L46.129 288.567L56.0232 281.777ZM81.7954 310.233C71.063 301.778 60.3657 288.105 56.0232 281.777L46.129 288.567C50.7544 295.307 62.2545 310.115 74.3694 319.659L81.7954 310.233ZM83.3496 318.75C83.3496 318.185 83.4578 317.661 83.6491 317.185L72.5156 312.708C71.7616 314.583 71.3496 316.626 71.3496 318.75H83.3496ZM87.5496 322.95C85.23 322.95 83.3496 321.069 83.3496 318.75H71.3496C71.3496 327.697 78.6026 334.95 87.5496 334.95V322.95ZM91.7496 318.75C91.7496 321.069 89.8692 322.95 87.5496 322.95V334.95C96.4966 334.95 103.75 327.697 103.75 318.75H91.7496ZM87.5496 314.55C89.8692 314.55 91.7496 316.43 91.7496 318.75H103.75C103.75 309.803 96.4966 302.55 87.5496 302.55V314.55ZM85.2102 315.26C85.8764 314.812 86.6734 314.55 87.5496 314.55V302.55C84.2107 302.55 81.091 303.566 78.5059 305.308L85.2102 315.26ZM52.7972 287.605C58.0062 294.776 67.9783 307.014 78.1524 315.003L85.5637 305.565C76.6856 298.593 67.4818 287.403 62.5062 280.553L52.7972 287.605ZM69.1288 267.51L53.9601 279.349L61.3434 288.809L76.5121 276.97L69.1288 267.51ZM71.3954 265.741L69.1288 267.51L76.5121 276.97L78.7786 275.201L71.3954 265.741ZM68.5334 271.618L70.2046 273.958L79.9694 266.983L78.2982 264.644L68.5334 271.618ZM47.0715 225.646C48.5499 233.759 54.2824 251.667 68.5334 271.618L78.2982 264.644C65.0531 246.1 60.0322 229.834 58.8771 223.495L47.0715 225.646ZM51.7996 215.9C51.7996 217.4 51.0167 218.723 49.8083 219.474L56.1403 229.667C60.7253 226.819 63.7996 221.721 63.7996 215.9H51.7996ZM47.5996 211.7C49.9192 211.7 51.7996 213.58 51.7996 215.9H63.7996C63.7996 206.953 56.5466 199.7 47.5996 199.7V211.7ZM43.3996 215.9C43.3996 213.58 45.28 211.7 47.5996 211.7V199.7C38.6526 199.7 31.3996 206.953 31.3996 215.9H43.3996ZM47.4125 220.096C45.1821 220 43.3996 218.157 43.3996 215.9H31.3996C31.3996 224.612 38.2748 231.716 46.8994 232.085L47.4125 220.096Z"
        fill="url(#paint1_linear_2_2)" />
    </g>
  </g>
  <defs>
    <linearGradient id="paint0_linear_2_2" x1="255.696" y1="87.6694" x2="117.616" y2="286.021"
      gradientUnits="userSpaceOnUse">
      <stop stop-color="#B76CFB" />
      <stop offset="1" stop-color="#A84CFD" />
    </linearGradient>
    <linearGradient id="paint1_linear_2_2" x1="71.4" y1="349.161" x2="301.75" y2="17.2357"
      gradientUnits="userSpaceOnUse">
      <stop stop-color="#A23DFB" />
      <stop offset="1" stop-color="#BC79FA" />
    </linearGradient>
    <clipPath id="clip0_2_2">
      <rect width="374" height="374" fill="white" />
    </clipPath>
  </defs>
</svg>