<svg width="22" height="18" viewBox="0 0 22 18" fill="none" xmlns="http://www.w3.org/2000/svg">
  <g filter="url(#filter0_i_1_332)">
    <path
      d="M1.48236 7.60015C8.25226 4.72508 17.0125 1.21982 18.2221 0.734564C21.394 -0.535145 22.3674 -0.292049 21.8821 2.52038C21.5335 4.54182 20.5282 11.2335 19.7262 15.3989C19.2507 17.8691 18.1834 18.1617 16.5059 17.0931C15.6992 16.5788 11.6266 13.9786 10.7423 13.3681C9.93554 12.8118 8.82271 12.1423 10.2183 10.824C10.7152 10.3546 13.9704 7.35332 16.5069 5.01773C16.8391 4.71105 16.4217 4.2071 16.0381 4.453C12.6193 6.6418 7.87938 9.67956 7.276 10.0751C6.36463 10.6725 5.48909 10.9465 3.91817 10.5108C2.73077 10.1816 1.57146 9.78895 1.12013 9.63936C-0.618348 9.06341 -0.205761 8.31729 1.48236 7.60015Z"
      fill="white" />
  </g>
  <defs>
    <filter id="filter0_i_1_332" x="0" y="0" width="22" height="21.6799" filterUnits="userSpaceOnUse"
      color-interpolation-filters="sRGB">
      <feFlood flood-opacity="0" result="BackgroundImageFix" />
      <feBlend mode="normal" in="SourceGraphic" in2="BackgroundImageFix" result="shape" />
      <feColorMatrix in="SourceAlpha" type="matrix" values="0 0 0 0 0 0 0 0 0 0 0 0 0 0 0 0 0 0 127 0"
        result="hardAlpha" />
      <feOffset dy="4" />
      <feGaussianBlur stdDeviation="4" />
      <feComposite in2="hardAlpha" operator="arithmetic" k2="-1" k3="1" />
      <feColorMatrix type="matrix" values="0 0 0 0 0 0 0 0 0 0 0 0 0 0 0 0 0 0 0.2 0" />
      <feBlend mode="normal" in2="shape" result="effect1_innerShadow_1_332" />
    </filter>
  </defs>
</svg>